# xmcd
#
# Track frame offsets:
#	150
#	17121
#	34842
#	50125
#	73063
#	89147
#	106707
#	126119
#	142854
#	152563
#	170803
#
# Disc length: 2379 seconds
# Revision: 0
# Processed by: cddbd v1.5.2PL0 Copyright (c) Steve Scherf et al.
# Submitted via: dBpowerAMP V12.0
#
DISCID=9809490b
DTITLE=Robert Pospiš and Martin Sillay - Balady
DYEAR=2015
DGENRE=Ballad
TTITLE0=Stojí hruška v sade
TTITLE1=Medzi horami
TTITLE2=Po hore, po hore
TTITLE3=V tom šírom poli
TTITLE4=Vyskočilo slniečko
TTITLE5=V hlbokej doline
TTITLE6=Od Dunaja až k nám
TTITLE7=Pod košatou lipkou
TTITLE8=Na olivon strome
TTITLE9=Išli hudci horou
TTITLE10=Vyletela duša z tela
EXTD=
EXTT0=
EXTT1=
EXTT2=
EXTT3=
EXTT4=
EXTT5=
EXTT6=
EXTT7=
EXTT8=
EXTT9=
EXTT10=
PLAYORDER=
